<?xml version="1.0" encoding="UTF-8" standalone="no"?>
<!-- Created with Inkscape (http://www.inkscape.org/) -->

<svg
   width="10mm"
   height="10mm"
   viewBox="0 0 10 10"
   version="1.1"
   id="svg5"
   inkscape:version="1.2 (dc2aedaf03, 2022-05-15)"
   sodipodi:docname="icon.svg"
   xmlns:inkscape="http://www.inkscape.org/namespaces/inkscape"
   xmlns:sodipodi="http://sodipodi.sourceforge.net/DTD/sodipodi-0.dtd"
   xmlns="http://www.w3.org/2000/svg"
   xmlns:svg="http://www.w3.org/2000/svg">
  <sodipodi:namedview
     id="namedview7"
     pagecolor="#ffffff"
     bordercolor="#666666"
     borderopacity="1.0"
     inkscape:showpageshadow="2"
     inkscape:pageopacity="0.0"
     inkscape:pagecheckerboard="0"
     inkscape:deskcolor="#d1d1d1"
     inkscape:document-units="mm"
     showgrid="false"
     inkscape:zoom="7.9522133"
     inkscape:cx="3.709659"
     inkscape:cy="0.31437788"
     inkscape:window-width="1920"
     inkscape:window-height="1011"
     inkscape:window-x="0"
     inkscape:window-y="0"
     inkscape:window-maximized="1"
     inkscape:current-layer="layer1" />
  <defs
     id="defs2" />
  <g
     inkscape:label="Livello 1"
     inkscape:groupmode="layer"
     id="layer1"
     transform="translate(-86.283754,-109.91583)">
    <g
       aria-label="y"
       id="text186"
       style="font-size:10.5833px;line-height:1.25;stroke-width:0.264583">
      <path
         d="m 93.093499,110.94709 c -0.328082,0 -0.613831,0.28575 -0.613831,0.635 v 1.91558 c 0,0.73024 -0.539749,1.33349 -1.206497,1.33349 -0.656164,0 -1.195912,-0.60325 -1.195912,-1.33349 v -1.89441 c 0,-0.33867 -0.275166,-0.635 -0.613832,-0.635 -0.338665,0 -0.613831,0.29633 -0.613831,0.635 v 1.89441 c 0,1.43933 1.09008,2.60349 2.423575,2.60349 0.444499,0 0.857248,-0.127 1.206497,-0.32808 v 0.43391 c 0,0.77258 -0.613832,1.40758 -1.365246,1.40758 -0.391582,0 -0.772581,-0.17992 -1.037163,-0.48683 -0.22225,-0.27517 -0.613832,-0.30692 -0.867831,-0.0741 -0.253999,0.23283 -0.285749,0.63499 -0.0635,0.89958 0.497415,0.59266 1.206496,0.93133 1.968494,0.93133 1.428745,0 2.603492,-1.2065 2.603492,-2.67758 v -4.6249 c 0,-0.34925 -0.275166,-0.635 -0.624415,-0.635 z"
         style="font-family:Somatic;-inkscape-font-specification:'Somatic, Normal';fill:#800080"
         id="path418" />
    </g>
  </g>
</svg>
